<mxfile host="65bd71144e">
    <diagram id="3CvvfDOVxWBstkLVn0Dm" name="Page-1">
        <mxGraphModel dx="1130" dy="696" grid="0" gridSize="10" guides="1" tooltips="1" connect="1" arrows="1" fold="1" page="1" pageScale="1" pageWidth="850" pageHeight="1100" background="#ffffff" math="0" shadow="0">
            <root>
                <mxCell id="0"/>
                <mxCell id="1" parent="0"/>
                <mxCell id="6" value="&lt;span style=&quot;color: rgb(0, 0, 0); font-family: Calibri, sans-serif; text-align: start; background-color: rgb(241, 241, 241);&quot;&gt;&lt;font style=&quot;font-size: 15px;&quot;&gt;Diagramme d'activitÃ© &quot;recherche covoitureur&quot;&lt;/font&gt;&lt;/span&gt;" style="swimlane;childLayout=stackLayout;resizeParent=1;resizeParentMax=0;startSize=20;html=1;fontColor=#333333;labelBackgroundColor=none;fillColor=#f5f5f5;strokeColor=#666666;" vertex="1" parent="1">
                    <mxGeometry x="4" y="12" width="774" height="1320" as="geometry"/>
                </mxCell>
                <mxCell id="7" value="" style="endArrow=classic;html=1;fontSize=15;fontColor=#050505;entryX=0;entryY=0.5;entryDx=0;entryDy=0;strokeColor=#090707;strokeWidth=2;exitX=1;exitY=0.5;exitDx=0;exitDy=0;" edge="1" parent="6" source="9" target="16">
                    <mxGeometry width="50" height="50" relative="1" as="geometry">
                        <mxPoint x="141.5" y="88" as="sourcePoint"/>
                        <mxPoint x="141.5" y="134" as="targetPoint"/>
                    </mxGeometry>
                </mxCell>
                <mxCell id="34" value="" style="endArrow=classic;html=1;fontSize=15;fontColor=#050505;entryX=1;entryY=0.5;entryDx=0;entryDy=0;strokeColor=#090707;strokeWidth=2;exitX=0.5;exitY=1;exitDx=0;exitDy=0;" edge="1" parent="6" source="16" target="15">
                    <mxGeometry width="50" height="50" relative="1" as="geometry">
                        <mxPoint x="210" y="274" as="sourcePoint"/>
                        <mxPoint x="575.5" y="274" as="targetPoint"/>
                        <Array as="points">
                            <mxPoint x="625" y="238"/>
                        </Array>
                    </mxGeometry>
                </mxCell>
                <mxCell id="37" value="" style="endArrow=classic;html=1;fontSize=15;fontColor=#050505;entryX=0;entryY=0.5;entryDx=0;entryDy=0;strokeColor=#090707;strokeWidth=2;exitX=0.5;exitY=1;exitDx=0;exitDy=0;" edge="1" parent="6" source="15" target="17">
                    <mxGeometry width="50" height="50" relative="1" as="geometry">
                        <mxPoint x="196.25" y="330" as="sourcePoint"/>
                        <mxPoint x="561.75" y="330" as="targetPoint"/>
                        <Array as="points">
                            <mxPoint x="197" y="327"/>
                        </Array>
                    </mxGeometry>
                </mxCell>
                <mxCell id="8" value="Conducteur (passager)" style="swimlane;startSize=20;html=1;strokeColor=#666666;fillColor=#f5f5f5;fontColor=#333333;" vertex="1" parent="6">
                    <mxGeometry y="20" width="255" height="1300" as="geometry"/>
                </mxCell>
                <mxCell id="9" value="recherche de covoitureur" style="rounded=1;whiteSpace=wrap;html=1;labelBackgroundColor=none;strokeColor=#070603;fontSize=15;fontColor=#000000;fillColor=#f0a30a;strokeWidth=2;" vertex="1" parent="8">
                    <mxGeometry x="71.5" y="104" width="120" height="60" as="geometry"/>
                </mxCell>
                <mxCell id="10" value="" style="ellipse;whiteSpace=wrap;html=1;aspect=fixed;labelBackgroundColor=none;strokeColor=#000000;fontSize=15;fontColor=#050505;" vertex="1" parent="8">
                    <mxGeometry x="120" y="35" width="23" height="23" as="geometry"/>
                </mxCell>
                <mxCell id="11" value="consulter profil covoitureur" style="rounded=1;whiteSpace=wrap;html=1;labelBackgroundColor=none;strokeColor=#0c0804;fontSize=15;fontColor=#000000;fillColor=#f0a30a;strokeWidth=2;" vertex="1" parent="8">
                    <mxGeometry x="45" y="478" width="157" height="60" as="geometry"/>
                </mxCell>
                <mxCell id="13" value="" style="endArrow=classic;html=1;fontSize=15;fontColor=#050505;entryX=0.5;entryY=0;entryDx=0;entryDy=0;strokeColor=#090707;strokeWidth=2;" edge="1" parent="8" source="10" target="9">
                    <mxGeometry width="50" height="50" relative="1" as="geometry">
                        <mxPoint x="153" y="277" as="sourcePoint"/>
                        <mxPoint x="203" y="227" as="targetPoint"/>
                    </mxGeometry>
                </mxCell>
                <mxCell id="15" value="" style="rhombus;whiteSpace=wrap;html=1;labelBackgroundColor=none;strokeColor=#0c0b09;fontSize=15;fontColor=#000000;fillColor=#e3c800;strokeWidth=3;" vertex="1" parent="8">
                    <mxGeometry x="168" y="191" width="61" height="59" as="geometry"/>
                </mxCell>
                <mxCell id="33" value="" style="ellipse;html=1;shape=endState;fillColor=#000000;strokeColor=#0a0a0a;" vertex="1" parent="8">
                    <mxGeometry x="92" y="295" width="30" height="30" as="geometry"/>
                </mxCell>
                <mxCell id="36" value="" style="endArrow=classic;html=1;fontSize=15;fontColor=#050505;entryX=0.5;entryY=0;entryDx=0;entryDy=0;strokeColor=#090707;strokeWidth=2;exitX=0;exitY=0.5;exitDx=0;exitDy=0;" edge="1" parent="8" source="15" target="33">
                    <mxGeometry width="50" height="50" relative="1" as="geometry">
                        <mxPoint x="26" y="319" as="sourcePoint"/>
                        <mxPoint x="391.5" y="319" as="targetPoint"/>
                        <Array as="points">
                            <mxPoint x="108" y="220"/>
                        </Array>
                    </mxGeometry>
                </mxCell>
                <mxCell id="47" value="annuler" style="text;html=1;strokeColor=none;fillColor=none;align=center;verticalAlign=middle;whiteSpace=wrap;rounded=0;labelBackgroundColor=none;fontSize=15;fontColor=#050505;" vertex="1" parent="8">
                    <mxGeometry x="89" y="195" width="93" height="32" as="geometry"/>
                </mxCell>
                <mxCell id="48" value="Contacter covoitureur" style="rounded=1;whiteSpace=wrap;html=1;labelBackgroundColor=none;strokeColor=#0b0a09;fontSize=15;fontColor=#000000;fillColor=#f0a30a;strokeWidth=2;" vertex="1" parent="8">
                    <mxGeometry x="55" y="616.5" width="120" height="60" as="geometry"/>
                </mxCell>
                <mxCell id="51" value="" style="endArrow=classic;html=1;fontSize=15;fontColor=#050505;entryX=0.5;entryY=0;entryDx=0;entryDy=0;strokeColor=#090707;strokeWidth=2;exitX=0.446;exitY=1;exitDx=0;exitDy=0;exitPerimeter=0;" edge="1" parent="8" source="11" target="48">
                    <mxGeometry width="50" height="50" relative="1" as="geometry">
                        <mxPoint x="192" y="656.5" as="sourcePoint"/>
                        <mxPoint x="575" y="656.5" as="targetPoint"/>
                    </mxGeometry>
                </mxCell>
                <mxCell id="59" value="Lire message" style="rounded=1;whiteSpace=wrap;html=1;labelBackgroundColor=none;strokeColor=#0b0a09;fontSize=15;fontColor=#000000;fillColor=#f0a30a;strokeWidth=2;" vertex="1" parent="8">
                    <mxGeometry x="71.5" y="951" width="120" height="60" as="geometry"/>
                </mxCell>
                <mxCell id="63" value="" style="rhombus;whiteSpace=wrap;html=1;labelBackgroundColor=none;strokeColor=#0c0b09;fontSize=15;fontColor=#000000;fillColor=#e3c800;strokeWidth=3;" vertex="1" parent="8">
                    <mxGeometry x="107" y="1140" width="61" height="59" as="geometry"/>
                </mxCell>
                <mxCell id="61" value="" style="ellipse;html=1;shape=endState;fillColor=#000000;strokeColor=#0a0a0a;" vertex="1" parent="8">
                    <mxGeometry x="31" y="1225" width="30" height="30" as="geometry"/>
                </mxCell>
                <mxCell id="65" value="non" style="text;html=1;strokeColor=none;fillColor=none;align=center;verticalAlign=middle;whiteSpace=wrap;rounded=0;labelBackgroundColor=none;fontSize=15;fontColor=#050505;" vertex="1" parent="8">
                    <mxGeometry x="153" y="1133" width="83" height="50" as="geometry"/>
                </mxCell>
                <mxCell id="72" value="" style="endArrow=classic;html=1;fontSize=15;fontColor=#050505;entryX=0.5;entryY=0;entryDx=0;entryDy=0;strokeColor=#090707;strokeWidth=2;exitX=0;exitY=0.5;exitDx=0;exitDy=0;" edge="1" parent="8" source="63" target="61">
                    <mxGeometry width="50" height="50" relative="1" as="geometry">
                        <mxPoint x="135" y="1220" as="sourcePoint"/>
                        <mxPoint x="525" y="1220" as="targetPoint"/>
                        <Array as="points">
                            <mxPoint x="46" y="1170"/>
                        </Array>
                    </mxGeometry>
                </mxCell>
                <mxCell id="71" value="oui" style="text;html=1;strokeColor=none;fillColor=none;align=center;verticalAlign=middle;whiteSpace=wrap;rounded=0;labelBackgroundColor=none;fontSize=15;fontColor=#050505;" vertex="1" parent="8">
                    <mxGeometry x="31" y="1135" width="83" height="50" as="geometry"/>
                </mxCell>
                <mxCell id="32" value="Passager(conducteur)" style="swimlane;startSize=20;html=1;strokeColor=#666666;fillColor=#f5f5f5;fontColor=#333333;" vertex="1" parent="6">
                    <mxGeometry x="255" y="20" width="248" height="1300" as="geometry">
                        <mxRectangle x="255" y="20" width="32" height="985" as="alternateBounds"/>
                    </mxGeometry>
                </mxCell>
                <mxCell id="25" value="reponse" style="text;html=1;strokeColor=none;fillColor=none;align=center;verticalAlign=middle;whiteSpace=wrap;rounded=0;labelBackgroundColor=none;fontSize=15;fontColor=#050505;" vertex="1" parent="32">
                    <mxGeometry x="130" y="793" width="83" height="50" as="geometry"/>
                </mxCell>
                <mxCell id="26" value="pas de reponse" style="text;html=1;strokeColor=none;fillColor=none;align=center;verticalAlign=middle;whiteSpace=wrap;rounded=0;labelBackgroundColor=none;fontSize=15;fontColor=#050505;" vertex="1" parent="32">
                    <mxGeometry x="16" y="709" width="93" height="50" as="geometry"/>
                </mxCell>
                <mxCell id="46" value="saisir informations" style="text;html=1;strokeColor=none;fillColor=none;align=center;verticalAlign=middle;whiteSpace=wrap;rounded=0;labelBackgroundColor=none;fontSize=15;fontColor=#050505;" vertex="1" parent="32">
                    <mxGeometry x="-44" y="263" width="93" height="50" as="geometry"/>
                </mxCell>
                <mxCell id="49" value="" style="rhombus;whiteSpace=wrap;html=1;labelBackgroundColor=none;strokeColor=#0c0b09;fontSize=15;fontColor=#000000;fillColor=#e3c800;strokeWidth=3;" vertex="1" parent="32">
                    <mxGeometry x="96" y="727" width="61" height="59" as="geometry"/>
                </mxCell>
                <mxCell id="53" value="" style="ellipse;html=1;shape=endState;fillColor=#000000;strokeColor=#0a0a0a;" vertex="1" parent="32">
                    <mxGeometry x="18" y="821" width="30" height="30" as="geometry"/>
                </mxCell>
                <mxCell id="54" value="" style="endArrow=classic;html=1;fontSize=15;fontColor=#050505;entryX=0.5;entryY=0;entryDx=0;entryDy=0;strokeColor=#090707;strokeWidth=2;exitX=0;exitY=0.5;exitDx=0;exitDy=0;" edge="1" parent="32" source="49" target="53">
                    <mxGeometry width="50" height="50" relative="1" as="geometry">
                        <mxPoint x="-70" y="656.5" as="sourcePoint"/>
                        <mxPoint x="320" y="656.5" as="targetPoint"/>
                        <Array as="points">
                            <mxPoint x="33" y="757"/>
                        </Array>
                    </mxGeometry>
                </mxCell>
                <mxCell id="42" value="" style="endArrow=classic;html=1;fontSize=15;fontColor=#050505;strokeColor=#090707;strokeWidth=2;exitX=0;exitY=0.5;exitDx=0;exitDy=0;entryX=0.5;entryY=0;entryDx=0;entryDy=0;" edge="1" parent="6" source="40" target="11">
                    <mxGeometry width="50" height="50" relative="1" as="geometry">
                        <mxPoint x="231" y="435" as="sourcePoint"/>
                        <mxPoint x="208" y="461" as="targetPoint"/>
                        <Array as="points">
                            <mxPoint x="124" y="458"/>
                        </Array>
                    </mxGeometry>
                </mxCell>
                <mxCell id="50" value="" style="endArrow=classic;html=1;fontSize=15;fontColor=#050505;entryX=0;entryY=0.5;entryDx=0;entryDy=0;strokeColor=#090707;strokeWidth=2;exitX=1;exitY=0.5;exitDx=0;exitDy=0;" edge="1" parent="6" source="48" target="18">
                    <mxGeometry width="50" height="50" relative="1" as="geometry">
                        <mxPoint x="196.25" y="508" as="sourcePoint"/>
                        <mxPoint x="561.75" y="508" as="targetPoint"/>
                    </mxGeometry>
                </mxCell>
                <mxCell id="52" value="" style="endArrow=classic;html=1;fontSize=15;fontColor=#050505;entryX=0.5;entryY=0;entryDx=0;entryDy=0;strokeColor=#090707;strokeWidth=2;exitX=0.5;exitY=1;exitDx=0;exitDy=0;" edge="1" parent="6" source="18" target="49">
                    <mxGeometry width="50" height="50" relative="1" as="geometry">
                        <mxPoint x="185" y="676.5" as="sourcePoint"/>
                        <mxPoint x="575" y="676.5" as="targetPoint"/>
                        <Array as="points">
                            <mxPoint x="633" y="721"/>
                            <mxPoint x="381" y="723"/>
                        </Array>
                    </mxGeometry>
                </mxCell>
                <mxCell id="55" value="" style="endArrow=classic;html=1;fontSize=15;fontColor=#050505;entryX=0;entryY=0.5;entryDx=0;entryDy=0;strokeColor=#090707;strokeWidth=2;exitX=0.5;exitY=1;exitDx=0;exitDy=0;" edge="1" parent="6" source="49" target="56">
                    <mxGeometry width="50" height="50" relative="1" as="geometry">
                        <mxPoint x="380" y="836" as="sourcePoint"/>
                        <mxPoint x="569" y="861.5" as="targetPoint"/>
                        <Array as="points">
                            <mxPoint x="382" y="847"/>
                        </Array>
                    </mxGeometry>
                </mxCell>
                <mxCell id="14" value="System" style="swimlane;startSize=20;html=1;strokeColor=#666666;fillColor=#f5f5f5;fontColor=#333333;" vertex="1" parent="6">
                    <mxGeometry x="503" y="20" width="271" height="1300" as="geometry">
                        <mxRectangle x="255" y="20" width="32" height="985" as="alternateBounds"/>
                    </mxGeometry>
                </mxCell>
                <mxCell id="16" value="demander de saisir criteres de recherche" style="rounded=1;whiteSpace=wrap;html=1;labelBackgroundColor=none;strokeColor=#050803;fontSize=15;fontColor=#ffffff;fillColor=#60a917;strokeWidth=2;" vertex="1" parent="14">
                    <mxGeometry x="54" y="97.5" width="136" height="73" as="geometry"/>
                </mxCell>
                <mxCell id="17" value="Afficher covoitutreur disponibles" style="rounded=1;whiteSpace=wrap;html=1;labelBackgroundColor=none;strokeColor=#070907;fontSize=15;fontColor=#ffffff;fillColor=#60a917;strokeWidth=2;" vertex="1" parent="14">
                    <mxGeometry x="55" y="271" width="136" height="73" as="geometry"/>
                </mxCell>
                <mxCell id="18" value="Envoyer un message au covoitureur" style="rounded=1;whiteSpace=wrap;html=1;labelBackgroundColor=none;strokeColor=#0a0c09;fontSize=15;fontColor=#ffffff;fillColor=#60a917;strokeWidth=2;" vertex="1" parent="14">
                    <mxGeometry x="62" y="610" width="136" height="73" as="geometry"/>
                </mxCell>
                <mxCell id="40" value="" style="rhombus;whiteSpace=wrap;html=1;labelBackgroundColor=none;strokeColor=#0c0b09;fontSize=15;fontColor=#000000;fillColor=#e3c800;strokeWidth=3;" vertex="1" parent="14">
                    <mxGeometry x="91.5" y="411" width="61" height="59" as="geometry"/>
                </mxCell>
                <mxCell id="41" value="" style="endArrow=classic;html=1;fontSize=15;fontColor=#050505;entryX=0.5;entryY=0;entryDx=0;entryDy=0;strokeColor=#090707;strokeWidth=2;exitX=0.5;exitY=1;exitDx=0;exitDy=0;" edge="1" parent="14" source="17" target="40">
                    <mxGeometry width="50" height="50" relative="1" as="geometry">
                        <mxPoint x="-279" y="443" as="sourcePoint"/>
                        <mxPoint x="86.5" y="443" as="targetPoint"/>
                    </mxGeometry>
                </mxCell>
                <mxCell id="43" value="" style="endArrow=classic;html=1;fontSize=15;fontColor=#050505;entryX=1;entryY=0.5;entryDx=0;entryDy=0;strokeColor=#090707;strokeWidth=2;exitX=1;exitY=0.5;exitDx=0;exitDy=0;" edge="1" parent="14" source="40" target="16">
                    <mxGeometry width="50" height="50" relative="1" as="geometry">
                        <mxPoint x="98" y="506" as="sourcePoint"/>
                        <mxPoint x="463.5" y="506" as="targetPoint"/>
                        <Array as="points">
                            <mxPoint x="225" y="441"/>
                            <mxPoint x="228" y="132"/>
                        </Array>
                    </mxGeometry>
                </mxCell>
                <mxCell id="44" value="aucun resultat" style="text;html=1;strokeColor=none;fillColor=none;align=center;verticalAlign=middle;whiteSpace=wrap;rounded=0;labelBackgroundColor=none;fontSize=15;fontColor=#050505;" vertex="1" parent="14">
                    <mxGeometry x="138" y="397" width="93" height="50" as="geometry"/>
                </mxCell>
                <mxCell id="45" value="au moin 1 resultat" style="text;html=1;strokeColor=none;fillColor=none;align=center;verticalAlign=middle;whiteSpace=wrap;rounded=0;labelBackgroundColor=none;fontSize=15;fontColor=#050505;" vertex="1" parent="14">
                    <mxGeometry x="-4" y="397" width="93" height="50" as="geometry"/>
                </mxCell>
                <mxCell id="56" value="Envoyer un message au covoitureur" style="rounded=1;whiteSpace=wrap;html=1;labelBackgroundColor=none;strokeColor=#0a0c09;fontSize=15;fontColor=#ffffff;fillColor=#60a917;strokeWidth=2;" vertex="1" parent="14">
                    <mxGeometry x="72" y="793" width="136" height="73" as="geometry"/>
                </mxCell>
                <mxCell id="62" value="fin de conversation" style="rounded=1;whiteSpace=wrap;html=1;labelBackgroundColor=none;strokeColor=#0a0c09;fontSize=15;fontColor=#ffffff;fillColor=#60a917;strokeWidth=2;" vertex="1" parent="14">
                    <mxGeometry x="59" y="1034" width="136" height="73" as="geometry"/>
                </mxCell>
                <mxCell id="58" value="" style="endArrow=classic;html=1;fontSize=15;fontColor=#050505;entryX=0.5;entryY=0;entryDx=0;entryDy=0;strokeColor=#090707;strokeWidth=2;exitX=0.5;exitY=1;exitDx=0;exitDy=0;" edge="1" parent="6" source="56" target="59">
                    <mxGeometry width="50" height="50" relative="1" as="geometry">
                        <mxPoint x="643" y="894" as="sourcePoint"/>
                        <mxPoint x="156.90599999999995" y="974" as="targetPoint"/>
                        <Array as="points">
                            <mxPoint x="641" y="923"/>
                            <mxPoint x="643" y="933"/>
                            <mxPoint x="131" y="930"/>
                        </Array>
                    </mxGeometry>
                </mxCell>
                <mxCell id="64" value="" style="endArrow=classic;html=1;fontSize=15;fontColor=#050505;strokeColor=#090707;strokeWidth=2;exitX=1;exitY=0.5;exitDx=0;exitDy=0;entryX=1;entryY=0.5;entryDx=0;entryDy=0;" edge="1" parent="6" source="63" target="18">
                    <mxGeometry width="50" height="50" relative="1" as="geometry">
                        <mxPoint x="214" y="1151" as="sourcePoint"/>
                        <mxPoint x="649" y="1147" as="targetPoint"/>
                        <Array as="points">
                            <mxPoint x="747" y="1190"/>
                            <mxPoint x="747" y="667"/>
                        </Array>
                    </mxGeometry>
                </mxCell>
                <mxCell id="60" value="" style="endArrow=classic;html=1;fontSize=15;fontColor=#050505;strokeColor=#090707;strokeWidth=2;exitX=0.5;exitY=1;exitDx=0;exitDy=0;entryX=0;entryY=0.5;entryDx=0;entryDy=0;" edge="1" parent="6" source="59" target="62">
                    <mxGeometry width="50" height="50" relative="1" as="geometry">
                        <mxPoint x="199" y="1065" as="sourcePoint"/>
                        <mxPoint x="598" y="1048" as="targetPoint"/>
                        <Array as="points">
                            <mxPoint x="132" y="1091"/>
                        </Array>
                    </mxGeometry>
                </mxCell>
                <mxCell id="67" value="" style="endArrow=classic;html=1;fontSize=15;fontColor=#050505;entryX=0.5;entryY=0;entryDx=0;entryDy=0;strokeColor=#090707;strokeWidth=2;exitX=0.5;exitY=1;exitDx=0;exitDy=0;" edge="1" parent="6" source="62" target="63">
                    <mxGeometry width="50" height="50" relative="1" as="geometry">
                        <mxPoint x="170" y="1142" as="sourcePoint"/>
                        <mxPoint x="560" y="1142" as="targetPoint"/>
                        <Array as="points">
                            <mxPoint x="630" y="1144"/>
                            <mxPoint x="131" y="1136"/>
                        </Array>
                    </mxGeometry>
                </mxCell>
                <mxCell id="68" style="edgeStyle=none;html=1;" edge="1" parent="1" source="63">
                    <mxGeometry relative="1" as="geometry">
                        <mxPoint x="141.5" y="1153" as="targetPoint"/>
                    </mxGeometry>
                </mxCell>
            </root>
        </mxGraphModel>
    </diagram>
</mxfile>